<svg width="512" height="512" viewBox="0 0 512 512" xmlns="http://www.w3.org/2000/svg">
  <defs>
    <linearGradient id="grad1" x1="0%" y1="0%" x2="100%" y2="100%">
      <stop offset="0%" style="stop-color:#4f46e5;stop-opacity:1" />
      <stop offset="100%" style="stop-color:#0f172a;stop-opacity:1" />
    </linearGradient>
    <filter id="shadow" x="-20%" y="-20%" width="140%" height="140%">
      <feDropShadow dx="0" dy="4" stdDeviation="8" flood-color="#000000" flood-opacity="0.3"/>
    </filter>
  </defs>
  
  <!-- Background Container -->
  <rect width="512" height="512" rx="115" fill="url(#grad1)"/>
  
  <!-- Industrial Cog Design -->
  <g transform="translate(256, 256)" filter="url(#shadow)">
    <!-- Gear teeth -->
    <path d="M-70 -130 L70 -130 L90 -70 L130 -50 L180 -80 L230 10 L170 50 L170 90 L230 130 L180 220 L130 190 L90 210 L70 270 L-70 270 L-90 210 L-130 190 L-180 220 L-230 130 L-170 90 L-170 50 L-230 10 L-180 -80 L-130 -50 L-90 -70 Z" 
          fill="none" stroke="white" stroke-width="20" stroke-linejoin="round" opacity="0.1"/>
          
    <!-- Central M Monogram -->
    <path d="M-100 -50 L-100 100 L0 0 L100 100 L100 -50" 
          fill="none" stroke="white" stroke-width="40" stroke-linecap="round" stroke-linejoin="round"/>
          
    <!-- Pulse Line (AI) -->
    <circle cx="0" cy="-100" r="25" fill="#10b981"/>
  </g>
</svg>